# xmcd
#
# Track frame offsets:
#	150
#	9847
#	20637
#	29015
#	40222
#	50670
#	63022
#	75247
#	88162
#	98742
#	111435
#	121325
#	132012
#	144360
#	158310
#
# Disc length: 2288
#
# Revision: 4
# Processed by: cddbd v1.5.1PL0 Copyright (c) Steve Scherf et al.
# Submitted via: CDex 1.30Release
# Normalized: r3:DSETVAR1
#
DISCID=b208ee0f
DTITLE=Various Artist - Classic Country 1960-1964
DYEAR=1900
DGENRE=Country
TTITLE0=George Jones - The Race Is On
TTITLE1=Hank Locklin - Please Help Me, I'm Falling
TTITLE2=Roger Miller - Dang Me
TTITLE3=Floyd Cramer - Last Date
TTITLE4=Ferlin Husky - The Wings of a Dove
TTITLE5=Patsy Cline - Crazy
TTITLE6=Brenda Lee - I'm Sorry
TTITLE7=Johnny Horton - North to Alaska
TTITLE8=Jim Reeves - He'll Have to Go
TTITLE9=Bill Anderson - Still
TTITLE10=Ned Miller - From a Jack to a King
TTITLE11=Leroy Van Dyke - Walk on By
TTITLE12=Johnny Cash - Understand Your Man
TTITLE13=Lefty Frizzell - Saginaw, Michigan
TTITLE14=Claude King - Wolverton Mountain
EXTD=ID3G:   2
EXTT0=\n
EXTT1=
EXTT2=
EXTT3=
EXTT4=
EXTT5=
EXTT6=
EXTT7=
EXTT8=
EXTT9=
EXTT10=
EXTT11=
EXTT12=
EXTT13=
EXTT14=
PLAYORDER=
